0
SECTION
2
HEADER
9
$INSUNITS
70
4
9
$ACADVER
1
AC1014
9
$HANDSEED
5
FFFF
0
ENDSEC
0
SECTION
2
TABLES
0
TABLE
2
VPORT
5
8
100
AcDbSymbolTable
0
ENDTAB
0
TABLE
2
LTYPE
5
5
100
AcDbSymbolTable
0
LTYPE
5
14
100
AcDbSymbolTableRecord
100
AcDbLinetypeTableRecord
2
BYBLOCK
70
0
0
LTYPE
5
15
100
AcDbSymbolTableRecord
100
AcDbLinetypeTableRecord
2
BYLAYER
70
0
0
ENDTAB
0
TABLE
2
LAYER
5
2
100
AcDbSymbolTable
70
2
0
LAYER
5
50
100
AcDbSymbolTableRecord
100
AcDbLayerTableRecord
2
0
70
0
6
CONTINUOUS
0
ENDTAB
0
TABLE
2
STYLE
5
3
100
AcDbSymbolTable
70
1
0
STYLE
5
11
100
AcDbSymbolTableRecord
100
AcDbTextStyleTableRecord
2
STANDARD
70
0
0
ENDTAB
0
TABLE
2
VIEW
5
6
100
AcDbSymbolTable
70
0
0
ENDTAB
0
TABLE
2
UCS
5
7
100
AcDbSymbolTable
70
0
0
ENDTAB
0
TABLE
2
APPID
5
9
100
AcDbSymbolTable
70
2
0
APPID
5
12
100
AcDbSymbolTableRecord
100
AcDbRegAppTableRecord
2
ACAD
70
0
0
ENDTAB
0
TABLE
2
DIMSTYLE
5
A
100
AcDbSymbolTable
70
1
0
ENDTAB
0
TABLE
2
BLOCK_RECORD
5
1
100
AcDbSymbolTable
70
1
0
BLOCK_RECORD
5
1F
100
AcDbSymbolTableRecord
100
AcDbBlockTableRecord
2
*MODEL_SPACE
0
BLOCK_RECORD
5
1B
100
AcDbSymbolTableRecord
100
AcDbBlockTableRecord
2
*PAPER_SPACE
0
ENDTAB
0
ENDSEC
0
SECTION
2
BLOCKS
0
BLOCK
5
20
100
AcDbEntity
100
AcDbBlockBegin
2
*MODEL_SPACE
0
ENDBLK
5
21
100
AcDbEntity
100
AcDbBlockEnd
0
BLOCK
5
1C
100
AcDbEntity
100
AcDbBlockBegin
2
*PAPER_SPACE
0
ENDBLK
5
1D
100
AcDbEntity
100
AcDbBlockEnd
0
ENDSEC
0
SECTION
2
ENTITIES
0
LWPOLYLINE
5
100
100
AcDbEntity
8
0
100
AcDbPolyline
90
8
70
1
43
0.0
10
-1.0000000000000013
20
-10
10
-1.0000000000000009
20
-61.499999999999993
42
0.41421356237309453
10
10.000000000000002
20
-72.5
10
61.499999999999986
20
-72.5
42
0.41421356237309431
10
72.5
20
-61.499999999999993
10
72.499999999999986
20
-10
42
0.41421356237309492
10
61.499999999999993
20
1.0000000000000009
10
10
20
0.99999999999999867
42
0.41421356237309476
0
LWPOLYLINE
5
101
100
AcDbEntity
8
0
100
AcDbPolyline
90
4
70
1
43
0.0
10
13.759008580372816
20
-26.699029447962648
10
10.93833570431492
20
-38.03209011069535
10
16.379561012799044
20
-38.03209011069535
10
19.200233888856953
20
-26.699029447962648
0
LWPOLYLINE
5
102
100
AcDbEntity
8
0
100
AcDbPolyline
90
6
70
1
43
0.0
10
10.631802072860555
20
-39.26369845136022
10
6.2523790862078599
20
-39.26369845136022
10
5.1801606600313477
20
-43.571718913676563
10
18.75515403782952
20
-43.571718913676563
10
21.794909459066215
20
-39.26369845136022
10
16.073027381344673
20
-39.26369845136022
0
LWPOLYLINE
5
103
100
AcDbEntity
8
0
100
AcDbPolyline
90
5
70
1
43
0.0
10
60.006823143253115
20
-43.571718913676563
10
63.044737073660443
20
-39.266308260070048
10
61.418539430935624
20
-39.266308260070048
10
55.781710098135981
20
-39.265936990544787
10
54.710048819489842
20
-43.571718913676563
0
LWPOLYLINE
5
104
100
AcDbEntity
8
0
100
AcDbPolyline
90
4
70
1
43
0.0
10
61.72572261477999
20
-38.03209011069535
10
64.546395490837895
20
-26.699029447962648
10
58.909473753178681
20
-26.699029447962648
10
56.088800877120732
20
-38.03209011069535
0
LINE
5
105
100
AcDbEntity
8
0
100
AcDbLine
10
56.177361933615842
20
-31.496525794504826
30
0
11
57.371405468755228
21
-26.699029447962648
31
0
0
LINE
5
106
100
AcDbEntity
8
0
100
AcDbLine
10
38.255735692109745
20
-43.571718913676563
30
0
11
39.327666702812735
21
-39.264853245673471
31
0
0
LINE
5
107
100
AcDbEntity
8
0
100
AcDbLine
10
37.344535434029609
20
-38.03209011069535
30
0
11
40.165208310087507
21
-26.699029447962648
31
0
0
LINE
5
108
100
AcDbEntity
8
0
100
AcDbLine
10
31.728003079883884
20
-38.03209011069535
30
0
11
33.4487589195369
21
-31.118338969232305
31
0
0
LINE
5
109
100
AcDbEntity
8
0
100
AcDbLine
10
35.42481263961723
20
-43.571718913676563
30
0
11
38.463793381782324
21
-39.264796346693771
31
0
0
SPLINE
5
110
100
AcDbEntity
8
0
100
AcDbSpline
70
4
71
5
72
12
73
6
74
0
42
0.000000001
43
0.0000000001
44
0.0000000001
40
0.99977051933307692
40
0.99977051933307692
40
0.99977051933307692
40
0.99977051933307692
40
0.99977051933307692
40
0.99977051933307692
40
1
40
1
40
1
40
1
40
1
40
1
41
1
41
1
41
1
41
1
41
1
41
1
10
27.760554583162222
20
-39.264091370496452
30
0
10
27.760882547150835
20
-39.264274007402811
30
0
10
27.761210597789354
20
-39.264456524377849
30
0
10
27.761538735077767
20
-39.264638921421579
30
0
10
27.761866959016061
20
-39.264821198534001
30
0
10
27.762195269604231
20
-39.26500335571513
30
0
0
LINE
5
111
100
AcDbEntity
8
0
100
AcDbLine
10
27.033013469529926
20
-38.03209011069535
30
0
11
22.012123861676727
21
-38.032090110670246
31
0
0
SPLINE
5
112
100
AcDbEntity
8
0
100
AcDbSpline
70
4
71
4
72
10
73
5
74
0
42
0.000000001
43
0.0000000001
44
0.0000000001
40
0
40
0
40
0
40
0
40
0
40
1
40
1
40
1
40
1
40
1
41
1
41
1
41
1
41
1
41
1
10
33.4487589195369
20
-31.118338969232305
30
0
10
31.945549117364532
20
-30.640502009417688
30
0
10
28.375575882991981
20
-30.504069911288802
30
0
10
26.692913339402367
20
-35.120022564649496
30
0
10
27.033013469529926
20
-38.03209011069535
30
0
0
SPLINE
5
113
100
AcDbEntity
8
0
100
AcDbSpline
70
4
71
5
72
12
73
6
74
0
42
0.000000001
43
0.0000000001
44
0.0000000001
40
0
40
0
40
0
40
0
40
0
40
0
40
0.35588861176603903
40
0.35588861176603903
40
0.35588861176603903
40
0.35588861176603903
40
0.35588861176603903
40
0.35588861176603903
41
1
41
1
41
1
41
1
41
1
41
1
10
27.269589415286649
20
-43.571718913676563
30
0
10
25.975828050250271
20
-43.571718913676563
30
0
10
24.554911486999806
20
-43.190978331954575
30
0
10
23.374999564569379
20
-42.276197519472881
30
0
10
22.578246215135628
20
-40.910976961437591
30
0
10
22.198088279026294
20
-39.263724167594191
30
0
0
SPLINE
5
114
100
AcDbEntity
8
0
100
AcDbSpline
70
4
71
5
72
12
73
6
74
0
42
0.000000001
43
0.0000000001
44
0.0000000001
40
0.40683120118696292
40
0.40683120118696292
40
0.40683120118696292
40
0.40683120118696292
40
0.40683120118696292
40
0.40683120118696292
40
1
40
1
40
1
40
1
40
1
40
1
41
1
41
1
41
1
41
1
41
1
41
1
10
22.012123861676727
20
-38.032090110670246
30
0
10
21.780875021593165
20
-35.053482995864073
30
0
10
22.729197206955043
20
-31.505538726935892
30
0
10
24.87892650164693
20
-28.265990216156194
30
0
10
27.54247590786359
20
-26.699029447962648
30
0
10
30.831447620057343
20
-26.699029447962648
30
0
0
LINE
5
115
100
AcDbEntity
8
0
100
AcDbLine
10
52.077641709088226
20
-33.699480505015522
30
0
11
47.690316334360929
21
-33.699480505015529
31
0
0
SPLINE
5
116
100
AcDbEntity
8
0
100
AcDbSpline
70
4
71
4
72
10
73
5
74
0
42
0.000000001
43
0.0000000001
44
0.0000000001
40
0
40
0
40
0
40
0
40
0
40
0.46244374437370533
40
0.46244374437370533
40
0.46244374437370533
40
0.46244374437370533
40
0.46244374437370533
41
1
41
1
41
1
41
1
41
1
10
52.077641709088226
20
-33.699480505015522
30
0
10
53.482155004259809
20
-33.742045437832061
30
0
10
54.394981226441672
20
-34.757677681943846
30
0
10
54.723179807740422
20
-36.345422888447388
30
0
10
54.478819037266121
20
-38.03209011069535
30
0
0
SPLINE
5
117
100
AcDbEntity
8
0
100
AcDbSpline
70
4
71
4
72
10
73
5
74
0
42
0.000000001
43
0.0000000001
44
0.0000000001
40
0.54644996709051419
40
0.54644996709051419
40
0.54644996709051419
40
0.54644996709051419
40
0.54644996709051419
40
1
40
1
40
1
40
1
40
1
41
1
41
1
41
1
41
1
41
1
10
54.188298774649994
20
-39.265832032603214
30
0
10
53.644399073117
20
-40.926565399661726
30
0
10
52.557301927208648
20
-42.514791404265537
30
0
10
50.956388696813079
20
-43.571718913676563
30
0
10
48.968201547306442
20
-43.571718913676563
30
0
0
LINE
5
118
100
AcDbEntity
8
0
100
AcDbLine
10
56.177361933615842
20
-31.496525794504826
30
0
11
47.690316334360929
21
-31.496525794504837
31
0
0
SPLINE
5
119
100
AcDbEntity
8
0
100
AcDbSpline
70
4
71
4
72
10
73
5
74
0
42
0.000000001
43
0.0000000001
44
0.0000000001
40
0
40
0
40
0
40
0
40
0
40
1
40
1
40
1
40
1
40
1
41
1
41
1
41
1
41
1
41
1
10
47.690316334360929
20
-31.496525794504837
30
0
10
46.346409371436827
20
-31.51901781898264
30
0
10
46.378003820864919
20
-32.688012447822118
30
0
10
46.109451000726125
20
-33.762223728377315
30
0
10
47.690316334360929
20
-33.699480505015529
30
0
0
SPLINE
5
120
100
AcDbEntity
8
0
100
AcDbSpline
70
4
71
5
72
12
73
6
74
0
42
0.000000001
43
0.0000000001
44
0.0000000001
40
0
40
0
40
0
40
0
40
0
40
0
40
1
40
1
40
1
40
1
40
1
40
1
41
1
41
1
41
1
41
1
41
1
41
1
10
45.853275784899026
20
-26.699029447962648
30
0
10
41.959113240805678
20
-26.699029447962648
30
0
10
39.646954230250259
20
-30.09372991012637
30
0
10
38.234395444412186
20
-35.483688964437803
30
0
10
41.204619247887592
20
-38.03209011069535
30
0
10
45.687331358304135
20
-38.03209011069535
30
0
0
LINE
5
121
100
AcDbEntity
8
0
100
AcDbLine
10
54.550732592697315
20
-38.03209011069535
30
0
11
45.687331358304135
21
-38.03209011069535
31
0
0
LINE
5
122
100
AcDbEntity
8
0
100
AcDbLine
10
37.344535434029609
20
-38.03209011069535
30
0
11
31.728003079883884
21
-38.03209011069535
31
0
0
LINE
5
123
100
AcDbEntity
8
0
100
AcDbLine
10
40.165208310087507
20
-26.699029447962648
30
0
11
30.831447620057343
21
-26.699029447962648
31
0
0
LINE
5
124
100
AcDbEntity
8
0
100
AcDbLine
10
27.269589415286649
20
-43.571718913676563
30
0
11
35.42481263961723
21
-43.571718913676563
31
0
0
LINE
5
125
100
AcDbEntity
8
0
100
AcDbLine
10
38.255735692109745
20
-43.571718913676563
30
0
11
48.968201547306442
21
-43.571718913676563
31
0
0
LINE
5
126
100
AcDbEntity
8
0
100
AcDbLine
10
54.188298774650001
20
-39.265832032617858
30
0
11
39.327666702812735
21
-39.264853245673471
31
0
0
LINE
5
127
100
AcDbEntity
8
0
100
AcDbLine
10
38.463793381782324
20
-39.264796346693771
30
0
11
22.198088279026294
21
-39.263724167594191
31
0
0
LINE
5
128
100
AcDbEntity
8
0
100
AcDbLine
10
57.371405468755228
20
-26.699029447962648
30
0
11
45.853275784899026
21
-26.699029447962648
31
0
0
ENDSEC
0
SECTION
2
OBJECTS
0
DICTIONARY
5
C
100
AcDbDictionary
3
ACAD_GROUP
350
D
3
ACAD_MLINESTYLE
350
17
0
DICTIONARY
5
D
100
AcDbDictionary
0
DICTIONARY
5
1A
330
C
100
AcDbDictionary
0
DICTIONARY
5
17
100
AcDbDictionary
0
ENDSEC
0
EOF
