<?xml version="1.0" standalone="no"?>
<!DOCTYPE svg PUBLIC "-//W3C//DTD SVG 20010904//EN"
 "http://www.w3.org/TR/2001/REC-SVG-20010904/DTD/svg10.dtd">
<svg version="1.0" xmlns="http://www.w3.org/2000/svg"
 width="600.000000pt" height="200.000000pt" viewBox="0 0 600.000000 200.000000"
 preserveAspectRatio="xMidYMid meet">
<metadata>
Created by potrace 1.16, written by Peter Selinger 2001-2019
</metadata>
<g transform="translate(0.000000,200.000000) scale(0.100000,-0.100000)"
fill="#000000" stroke="none">
<path d="M1692 1301 c-34 -49 -65 -96 -68 -105 -5 -14 13 -16 174 -16 l179 0
27 98 c14 54 26 102 26 105 0 4 -62 7 -138 7 l-139 0 -61 -89z"/>
<path d="M2225 1366 c-27 -13 -64 -39 -81 -57 -41 -45 -77 -106 -69 -119 9
-15 731 -14 741 1 7 11 54 178 54 191 0 5 -134 8 -297 8 -293 0 -299 -1 -348
-24z"/>
<path d="M2969 1338 c-69 -112 -87 -146 -82 -152 4 -3 184 -6 401 -6 l395 0
-7 32 c-14 68 -83 142 -155 167 -22 7 -122 11 -277 11 l-242 0 -33 -52z"/>
<path d="M3843 1363 c-31 -45 -103 -169 -103 -176 0 -12 758 -8 765 3 6 10 55
185 55 196 0 2 -157 4 -349 4 l-350 0 -18 -27z"/>
<path d="M1679 1098 c0 -2 -33 -126 -73 -275 l-72 -273 141 0 141 0 17 68 c36
146 116 448 122 465 7 16 -4 17 -134 17 -78 0 -141 -1 -142 -2z"/>
<path d="M2052 1037 c10 -120 39 -137 232 -137 123 0 138 -2 156 -20 24 -24
25 -48 4 -78 -15 -22 -19 -22 -249 -22 l-234 0 -15 -52 c-8 -29 -20 -73 -26
-98 -6 -25 -13 -52 -16 -61 -4 -14 28 -17 303 -23 303 -7 309 -7 366 15 115
44 189 149 195 279 5 94 -9 144 -51 192 -57 65 -72 68 -388 68 l-282 0 5 -63z"/>
<path d="M2913 1058 c-6 -24 -38 -145 -72 -270 -33 -125 -61 -231 -61 -237 0
-17 469 -14 552 3 117 25 188 75 262 183 60 88 86 166 93 275 l6 88 -120 0
-121 0 -7 -57 c-16 -132 -75 -221 -178 -269 -53 -24 -111 -31 -137 -15 -12 8
-7 33 29 162 24 84 45 159 48 166 4 10 -25 13 -139 13 l-145 0 -10 -42z"/>
<path d="M3995 1088 c-9 -23 -135 -518 -135 -528 0 -6 52 -10 130 -10 l130 0
6 28 c18 74 125 493 130 507 5 13 -11 15 -125 15 -96 0 -133 -3 -136 -12z"/>
</g>
</svg>
