solid OpenSCAD_Model
  facet normal 0 0 -1
    outer loop
      vertex 24.8063 21.3782 0
      vertex 24.5677 22.0337 0
      vertex 24.6985 21.7101 0
    endloop
  endfacet
  facet normal 0 0 -1
    outer loop
      vertex 24.2402 22.6496 0
      vertex 24.4147 22.3474 0
      vertex 24.5677 22.0337 0
    endloop
  endfacet
  facet normal 0 0 -1
    outer loop
      vertex 24.8907 21.0396 0
      vertex 24.5677 22.0337 0
      vertex 24.8063 21.3782 0
    endloop
  endfacet
  facet normal 0 0 -1
    outer loop
      vertex 24.9878 20.3488 0
      vertex 24.2402 22.6496 0
      vertex 24.5677 22.0337 0
    endloop
  endfacet
  facet normal 0 0 -1
    outer loop
      vertex 23.3456 23.7157 0
      vertex 24.0451 22.9389 0
      vertex 24.2402 22.6496 0
    endloop
  endfacet
  facet normal -0 -0 -1
    outer loop
      vertex 23.5967 23.4733 0
      vertex 23.8302 23.2139 0
      vertex 23.3456 23.7157 0
    endloop
  endfacet
  facet normal 0 0 -1
    outer loop
      vertex 23.3456 23.7157 0
      vertex 23.8302 23.2139 0
      vertex 24.0451 22.9389 0
    endloop
  endfacet
  facet normal 0 0 -1
    outer loop
      vertex 20.5226 24.9726 0
      vertex 23.3456 23.7157 0
      vertex 24.9878 20.3488 0
    endloop
  endfacet
  facet normal 0 0 -1
    outer loop
      vertex 22.1918 24.494 0
      vertex 23.0783 23.94 0
      vertex 23.3456 23.7157 0
    endloop
  endfacet
  facet normal 0 0 -1
    outer loop
      vertex 22.1918 24.494 0
      vertex 22.796 24.1452 0
      vertex 23.0783 23.94 0
    endloop
  endfacet
  facet normal 0 0 -1
    outer loop
      vertex 22.1918 24.494 0
      vertex 22.5 24.3301 0
      vertex 22.796 24.1452 0
    endloop
  endfacet
  facet normal -0 -0 -1
    outer loop
      vertex 21.2096 24.8515 0
      vertex 22.1918 24.494 0
      vertex 20.5226 24.9726 0
    endloop
  endfacet
  facet normal -0 -0 -1
    outer loop
      vertex 21.5451 24.7553 0
      vertex 21.873 24.6359 0
      vertex 21.2096 24.8515 0
    endloop
  endfacet
  facet normal 0 0 -1
    outer loop
      vertex 21.2096 24.8515 0
      vertex 21.873 24.6359 0
      vertex 22.1918 24.494 0
    endloop
  endfacet
  facet normal -0 -0 -1
    outer loop
      vertex 20.8682 24.924 0
      vertex 21.2096 24.8515 0
      vertex 20.5226 24.9726 0
    endloop
  endfacet
  facet normal 0 0 -1
    outer loop
      vertex 20.5226 24.9726 0
      vertex 22.1918 24.494 0
      vertex 23.3456 23.7157 0
    endloop
  endfacet
  facet normal 0 0 -1
    outer loop
      vertex 24.9878 20.3488 0
      vertex 23.3456 23.7157 0
      vertex 24.2402 22.6496 0
    endloop
  endfacet
  facet normal 0 0 -1
    outer loop
      vertex 24.9878 20.3488 0
      vertex 20.1745 24.9969 0
      vertex 20.5226 24.9726 0
    endloop
  endfacet
  facet normal -0 -0 -1
    outer loop
      vertex 24.9878 20.3488 0
      vertex 25 20 0
      vertex 20.1745 24.9969 0
    endloop
  endfacet
  facet normal 0 0 -1
    outer loop
      vertex -24.9878 20.3488 0
      vertex -20.5226 24.9726 0
      vertex -20.1745 24.9969 0
    endloop
  endfacet
  facet normal 0 0 -1
    outer loop
      vertex -21.2096 24.8515 0
      vertex -20.8682 24.924 0
      vertex -20.5226 24.9726 0
    endloop
  endfacet
  facet normal 0 -0 -1
    outer loop
      vertex -21.5451 24.7553 0
      vertex -21.2096 24.8515 0
      vertex -21.873 24.6359 0
    endloop
  endfacet
  facet normal 0 -0 -1
    outer loop
      vertex -21.873 24.6359 0
      vertex -21.2096 24.8515 0
      vertex -22.1918 24.494 0
    endloop
  endfacet
  facet normal 0 0 -1
    outer loop
      vertex -22.1918 24.494 0
      vertex -21.2096 24.8515 0
      vertex -20.5226 24.9726 0
    endloop
  endfacet
  facet normal 0 -0 -1
    outer loop
      vertex -22.796 24.1452 0
      vertex -22.1918 24.494 0
      vertex -23.0783 23.94 0
    endloop
  endfacet
  facet normal 0 0 -1
    outer loop
      vertex -22.796 24.1452 0
      vertex -22.5 24.3301 0
      vertex -22.1918 24.494 0
    endloop
  endfacet
  facet normal 0 -0 -1
    outer loop
      vertex -23.0783 23.94 0
      vertex -22.1918 24.494 0
      vertex -23.3456 23.7157 0
    endloop
  endfacet
  facet normal 0 0 -1
    outer loop
      vertex -23.3456 23.7157 0
      vertex -22.1918 24.494 0
      vertex -20.5226 24.9726 0
    endloop
  endfacet
  facet normal 0 -0 -1
    outer loop
      vertex -23.5967 23.4733 0
      vertex -23.3456 23.7157 0
      vertex -23.8302 23.2139 0
    endloop
  endfacet
  facet normal 0 -0 -1
    outer loop
      vertex -23.8302 23.2139 0
      vertex -23.3456 23.7157 0
      vertex -24.0451 22.9389 0
    endloop
  endfacet
  facet normal 0 -0 -1
    outer loop
      vertex -24.0451 22.9389 0
      vertex -23.3456 23.7157 0
      vertex -24.2402 22.6496 0
    endloop
  endfacet
  facet normal 0 -0 -1
    outer loop
      vertex -24.2402 22.6496 0
      vertex -23.3456 23.7157 0
      vertex -24.9878 20.3488 0
    endloop
  endfacet
  facet normal 0 -0 -1
    outer loop
      vertex -24.4147 22.3474 0
      vertex -24.2402 22.6496 0
      vertex -24.5677 22.0337 0
    endloop
  endfacet
  facet normal 0 0 -1
    outer loop
      vertex -24.5677 22.0337 0
      vertex -24.9878 20.3488 0
      vertex -24.8907 21.0396 0
    endloop
  endfacet
  facet normal 0 -0 -1
    outer loop
      vertex -24.6985 21.7101 0
      vertex -24.5677 22.0337 0
      vertex -24.8063 21.3782 0
    endloop
  endfacet
  facet normal 0 -0 -1
    outer loop
      vertex -24.8063 21.3782 0
      vertex -24.5677 22.0337 0
      vertex -24.8907 21.0396 0
    endloop
  endfacet
  facet normal 0 -0 -1
    outer loop
      vertex -24.5677 22.0337 0
      vertex -24.2402 22.6496 0
      vertex -24.9878 20.3488 0
    endloop
  endfacet
  facet normal 0 -0 -1
    outer loop
      vertex -24.9513 20.6959 0
      vertex -24.8907 21.0396 0
      vertex -24.9878 20.3488 0
    endloop
  endfacet
  facet normal 0 0 -1
    outer loop
      vertex -24.9878 20.3488 0
      vertex -23.3456 23.7157 0
      vertex -20.5226 24.9726 0
    endloop
  endfacet
  facet normal 0 0 -1
    outer loop
      vertex -25 20 0
      vertex -24.9878 20.3488 0
      vertex -20.1745 24.9969 0
    endloop
  endfacet
  facet normal -0 0 -1
    outer loop
      vertex 20.1745 24.9969 0
      vertex -25 20 0
      vertex -20.1745 24.9969 0
    endloop
  endfacet
  facet normal 0 0 -1
    outer loop
      vertex 20.1745 -24.9969 0
      vertex -25 -20 0
      vertex 25 -20 0
    endloop
  endfacet
  facet normal 0 0 -1
    outer loop
      vertex 20.1745 -24.9969 0
      vertex -20.1745 -24.9969 0
      vertex -25 -20 0
    endloop
  endfacet
  facet normal 0 0 -1
    outer loop
      vertex -24.8907 -21.0396 0
      vertex -24.9513 -20.6959 0
      vertex -24.9878 -20.3488 0
    endloop
  endfacet
  facet normal 0 0 -1
    outer loop
      vertex -24.8063 -21.3782 0
      vertex -24.5677 -22.0337 0
      vertex -24.6985 -21.7101 0
    endloop
  endfacet
  facet normal 0 0 -1
    outer loop
      vertex -24.8063 -21.3782 0
      vertex -24.8907 -21.0396 0
      vertex -24.5677 -22.0337 0
    endloop
  endfacet
  facet normal 0 0 -1
    outer loop
      vertex -24.5677 -22.0337 0
      vertex -24.8907 -21.0396 0
      vertex -24.9878 -20.3488 0
    endloop
  endfacet
  facet normal 0 0 -1
    outer loop
      vertex -24.4147 -22.3474 0
      vertex -24.5677 -22.0337 0
      vertex -24.2402 -22.6496 0
    endloop
  endfacet
  facet normal 0 0 -1
    outer loop
      vertex -24.2402 -22.6496 0
      vertex -24.5677 -22.0337 0
      vertex -24.9878 -20.3488 0
    endloop
  endfacet
  facet normal 0 0 -1
    outer loop
      vertex -24.0451 -22.9389 0
      vertex -24.2402 -22.6496 0
      vertex -23.3456 -23.7157 0
    endloop
  endfacet
  facet normal 0 0 -1
    outer loop
      vertex -23.8302 -23.2139 0
      vertex -24.0451 -22.9389 0
      vertex -23.3456 -23.7157 0
    endloop
  endfacet
  facet normal 0 0 -1
    outer loop
      vertex -23.5967 -23.4733 0
      vertex -23.8302 -23.2139 0
      vertex -23.3456 -23.7157 0
    endloop
  endfacet
  facet normal 0 0 -1
    outer loop
      vertex -23.3456 -23.7157 0
      vertex -24.2402 -22.6496 0
      vertex -24.9878 -20.3488 0
    endloop
  endfacet
  facet normal 0 0 -1
    outer loop
      vertex -23.0783 -23.94 0
      vertex -23.3456 -23.7157 0
      vertex -22.1918 -24.494 0
    endloop
  endfacet
  facet normal 0 0 -1
    outer loop
      vertex -22.796 -24.1452 0
      vertex -22.1918 -24.494 0
      vertex -22.5 -24.3301 0
    endloop
  endfacet
  facet normal 0 0 -1
    outer loop
      vertex -22.796 -24.1452 0
      vertex -23.0783 -23.94 0
      vertex -22.1918 -24.494 0
    endloop
  endfacet
  facet normal 0 0 -1
    outer loop
      vertex -22.1918 -24.494 0
      vertex -23.3456 -23.7157 0
      vertex -20.5226 -24.9726 0
    endloop
  endfacet
  facet normal 0 0 -1
    outer loop
      vertex -21.873 -24.6359 0
      vertex -21.2096 -24.8515 0
      vertex -21.5451 -24.7553 0
    endloop
  endfacet
  facet normal 0 0 -1
    outer loop
      vertex -21.873 -24.6359 0
      vertex -22.1918 -24.494 0
      vertex -21.2096 -24.8515 0
    endloop
  endfacet
  facet normal 0 0 -1
    outer loop
      vertex -21.2096 -24.8515 0
      vertex -20.5226 -24.9726 0
      vertex -20.8682 -24.924 0
    endloop
  endfacet
  facet normal 0 0 -1
    outer loop
      vertex -21.2096 -24.8515 0
      vertex -22.1918 -24.494 0
      vertex -20.5226 -24.9726 0
    endloop
  endfacet
  facet normal 0 0 -1
    outer loop
      vertex -20.5226 -24.9726 0
      vertex -23.3456 -23.7157 0
      vertex -24.9878 -20.3488 0
    endloop
  endfacet
  facet normal 0 0 -1
    outer loop
      vertex -20.1745 -24.9969 0
      vertex -20.5226 -24.9726 0
      vertex -24.9878 -20.3488 0
    endloop
  endfacet
  facet normal 0 0 -1
    outer loop
      vertex -25 -20 0
      vertex -20.1745 -24.9969 0
      vertex -24.9878 -20.3488 0
    endloop
  endfacet
  facet normal 0 0 -1
    outer loop
      vertex 25 -20 0
      vertex -25 -20 0
      vertex -25 20 0
    endloop
  endfacet
  facet normal 0 0 -1
    outer loop
      vertex 24.9878 -20.3488 0
      vertex 20.5226 -24.9726 0
      vertex 20.1745 -24.9969 0
    endloop
  endfacet
  facet normal 0 0 -1
    outer loop
      vertex 21.2096 -24.8515 0
      vertex 20.8682 -24.924 0
      vertex 20.5226 -24.9726 0
    endloop
  endfacet
  facet normal -0 0 -1
    outer loop
      vertex 21.5451 -24.7553 0
      vertex 21.2096 -24.8515 0
      vertex 21.873 -24.6359 0
    endloop
  endfacet
  facet normal -0 0 -1
    outer loop
      vertex 21.873 -24.6359 0
      vertex 21.2096 -24.8515 0
      vertex 22.1918 -24.494 0
    endloop
  endfacet
  facet normal 0 0 -1
    outer loop
      vertex 22.1918 -24.494 0
      vertex 21.2096 -24.8515 0
      vertex 20.5226 -24.9726 0
    endloop
  endfacet
  facet normal -0 0 -1
    outer loop
      vertex 22.796 -24.1452 0
      vertex 22.1918 -24.494 0
      vertex 23.0783 -23.94 0
    endloop
  endfacet
  facet normal 0 0 -1
    outer loop
      vertex 22.796 -24.1452 0
      vertex 22.5 -24.3301 0
      vertex 22.1918 -24.494 0
    endloop
  endfacet
  facet normal -0 0 -1
    outer loop
      vertex 23.0783 -23.94 0
      vertex 22.1918 -24.494 0
      vertex 23.3456 -23.7157 0
    endloop
  endfacet
  facet normal 0 0 -1
    outer loop
      vertex 23.3456 -23.7157 0
      vertex 22.1918 -24.494 0
      vertex 20.5226 -24.9726 0
    endloop
  endfacet
  facet normal -0 0 -1
    outer loop
      vertex 23.5967 -23.4733 0
      vertex 23.3456 -23.7157 0
      vertex 23.8302 -23.2139 0
    endloop
  endfacet
  facet normal -0 0 -1
    outer loop
      vertex 23.8302 -23.2139 0
      vertex 23.3456 -23.7157 0
      vertex 24.0451 -22.9389 0
    endloop
  endfacet
  facet normal -0 0 -1
    outer loop
      vertex 24.0451 -22.9389 0
      vertex 23.3456 -23.7157 0
      vertex 24.2402 -22.6496 0
    endloop
  endfacet
  facet normal -0 0 -1
    outer loop
      vertex 24.2402 -22.6496 0
      vertex 23.3456 -23.7157 0
      vertex 24.9878 -20.3488 0
    endloop
  endfacet
  facet normal -0 0 -1
    outer loop
      vertex 24.4147 -22.3474 0
      vertex 24.2402 -22.6496 0
      vertex 24.5677 -22.0337 0
    endloop
  endfacet
  facet normal 0 0 -1
    outer loop
      vertex 24.5677 -22.0337 0
      vertex 24.9878 -20.3488 0
      vertex 24.8907 -21.0396 0
    endloop
  endfacet
  facet normal -0 0 -1
    outer loop
      vertex 24.6985 -21.7101 0
      vertex 24.5677 -22.0337 0
      vertex 24.8063 -21.3782 0
    endloop
  endfacet
  facet normal -0 0 -1
    outer loop
      vertex 24.8063 -21.3782 0
      vertex 24.5677 -22.0337 0
      vertex 24.8907 -21.0396 0
    endloop
  endfacet
  facet normal -0 0 -1
    outer loop
      vertex 24.5677 -22.0337 0
      vertex 24.2402 -22.6496 0
      vertex 24.9878 -20.3488 0
    endloop
  endfacet
  facet normal -0 0 -1
    outer loop
      vertex 24.9513 -20.6959 0
      vertex 24.8907 -21.0396 0
      vertex 24.9878 -20.3488 0
    endloop
  endfacet
  facet normal 0 0 -1
    outer loop
      vertex 24.9878 -20.3488 0
      vertex 23.3456 -23.7157 0
      vertex 20.5226 -24.9726 0
    endloop
  endfacet
  facet normal 0 0 -1
    outer loop
      vertex 25 -20 0
      vertex 24.9878 -20.3488 0
      vertex 20.1745 -24.9969 0
    endloop
  endfacet
  facet normal -0 -0 -1
    outer loop
      vertex 25 20 0
      vertex 25 -20 0
      vertex -25 20 0
    endloop
  endfacet
  facet normal 0 -0 -1
    outer loop
      vertex 20.1745 24.9969 0
      vertex 25 20 0
      vertex -25 20 0
    endloop
  endfacet
  facet normal -0 -0 -1
    outer loop
      vertex 24.8907 21.0396 0
      vertex 24.9878 20.3488 0
      vertex 24.5677 22.0337 0
    endloop
  endfacet
  facet normal 0 0 -1
    outer loop
      vertex 24.8907 21.0396 0
      vertex 24.9513 20.6959 0
      vertex 24.9878 20.3488 0
    endloop
  endfacet
  facet normal 0 0 1
    outer loop
      vertex 24.6985 21.7101 10
      vertex 24.5677 22.0337 10
      vertex 24.8063 21.3782 10
    endloop
  endfacet
  facet normal 0 0 1
    outer loop
      vertex 24.5677 22.0337 10
      vertex 24.4147 22.3474 10
      vertex 24.2402 22.6496 10
    endloop
  endfacet
  facet normal 0 0 1
    outer loop
      vertex 24.8063 21.3782 10
      vertex 24.5677 22.0337 10
      vertex 24.8907 21.0396 10
    endloop
  endfacet
  facet normal 0 0 1
    outer loop
      vertex 24.5677 22.0337 10
      vertex 24.2402 22.6496 10
      vertex 24.9878 20.3488 10
    endloop
  endfacet
  facet normal 0 0 1
    outer loop
      vertex 24.2402 22.6496 10
      vertex 24.0451 22.9389 10
      vertex 23.3456 23.7157 10
    endloop
  endfacet
  facet normal 0 0 1
    outer loop
      vertex 23.3456 23.7157 10
      vertex 23.8302 23.2139 10
      vertex 23.5967 23.4733 10
    endloop
  endfacet
  facet normal 0 0 1
    outer loop
      vertex 24.0451 22.9389 10
      vertex 23.8302 23.2139 10
      vertex 23.3456 23.7157 10
    endloop
  endfacet
  facet normal 0 0 1
    outer loop
      vertex 24.9878 20.3488 10
      vertex 23.3456 23.7157 10
      vertex 20.5226 24.9726 10
    endloop
  endfacet
  facet normal 0 0 1
    outer loop
      vertex 23.3456 23.7157 10
      vertex 23.0783 23.94 10
      vertex 22.1918 24.494 10
    endloop
  endfacet
  facet normal 0 0 1
    outer loop
      vertex 23.0783 23.94 10
      vertex 22.796 24.1452 10
      vertex 22.1918 24.494 10
    endloop
  endfacet
  facet normal 0 0 1
    outer loop
      vertex 22.796 24.1452 10
      vertex 22.5 24.3301 10
      vertex 22.1918 24.494 10
    endloop
  endfacet
  facet normal 0 0 1
    outer loop
      vertex 20.5226 24.9726 10
      vertex 22.1918 24.494 10
      vertex 21.2096 24.8515 10
    endloop
  endfacet
  facet normal 0 0 1
    outer loop
      vertex 21.2096 24.8515 10
      vertex 21.873 24.6359 10
      vertex 21.5451 24.7553 10
    endloop
  endfacet
  facet normal 0 0 1
    outer loop
      vertex 22.1918 24.494 10
      vertex 21.873 24.6359 10
      vertex 21.2096 24.8515 10
    endloop
  endfacet
  facet normal 0 0 1
    outer loop
      vertex 20.5226 24.9726 10
      vertex 21.2096 24.8515 10
      vertex 20.8682 24.924 10
    endloop
  endfacet
  facet normal 0 0 1
    outer loop
      vertex 23.3456 23.7157 10
      vertex 22.1918 24.494 10
      vertex 20.5226 24.9726 10
    endloop
  endfacet
  facet normal 0 0 1
    outer loop
      vertex 24.2402 22.6496 10
      vertex 23.3456 23.7157 10
      vertex 24.9878 20.3488 10
    endloop
  endfacet
  facet normal 0 0 1
    outer loop
      vertex 20.5226 24.9726 10
      vertex 20.1745 24.9969 10
      vertex 24.9878 20.3488 10
    endloop
  endfacet
  facet normal 0 0 1
    outer loop
      vertex 20.1745 24.9969 10
      vertex 25 20 10
      vertex 24.9878 20.3488 10
    endloop
  endfacet
  facet normal 0 0 1
    outer loop
      vertex -20.1745 24.9969 10
      vertex -20.5226 24.9726 10
      vertex -24.9878 20.3488 10
    endloop
  endfacet
  facet normal 0 0 1
    outer loop
      vertex -20.5226 24.9726 10
      vertex -20.8682 24.924 10
      vertex -21.2096 24.8515 10
    endloop
  endfacet
  facet normal 0 0 1
    outer loop
      vertex -21.873 24.6359 10
      vertex -21.2096 24.8515 10
      vertex -21.5451 24.7553 10
    endloop
  endfacet
  facet normal 0 0 1
    outer loop
      vertex -22.1918 24.494 10
      vertex -21.2096 24.8515 10
      vertex -21.873 24.6359 10
    endloop
  endfacet
  facet normal 0 0 1
    outer loop
      vertex -20.5226 24.9726 10
      vertex -21.2096 24.8515 10
      vertex -22.1918 24.494 10
    endloop
  endfacet
  facet normal 0 0 1
    outer loop
      vertex -23.0783 23.94 10
      vertex -22.1918 24.494 10
      vertex -22.796 24.1452 10
    endloop
  endfacet
  facet normal 0 0 1
    outer loop
      vertex -22.1918 24.494 10
      vertex -22.5 24.3301 10
      vertex -22.796 24.1452 10
    endloop
  endfacet
  facet normal 0 0 1
    outer loop
      vertex -23.3456 23.7157 10
      vertex -22.1918 24.494 10
      vertex -23.0783 23.94 10
    endloop
  endfacet
  facet normal 0 0 1
    outer loop
      vertex -20.5226 24.9726 10
      vertex -22.1918 24.494 10
      vertex -23.3456 23.7157 10
    endloop
  endfacet
  facet normal 0 0 1
    outer loop
      vertex -23.8302 23.2139 10
      vertex -23.3456 23.7157 10
      vertex -23.5967 23.4733 10
    endloop
  endfacet
  facet normal 0 0 1
    outer loop
      vertex -24.0451 22.9389 10
      vertex -23.3456 23.7157 10
      vertex -23.8302 23.2139 10
    endloop
  endfacet
  facet normal 0 0 1
    outer loop
      vertex -24.2402 22.6496 10
      vertex -23.3456 23.7157 10
      vertex -24.0451 22.9389 10
    endloop
  endfacet
  facet normal 0 0 1
    outer loop
      vertex -24.9878 20.3488 10
      vertex -23.3456 23.7157 10
      vertex -24.2402 22.6496 10
    endloop
  endfacet
  facet normal 0 0 1
    outer loop
      vertex -24.5677 22.0337 10
      vertex -24.2402 22.6496 10
      vertex -24.4147 22.3474 10
    endloop
  endfacet
  facet normal -0 0 1
    outer loop
      vertex -24.8907 21.0396 10
      vertex -24.9878 20.3488 10
      vertex -24.5677 22.0337 10
    endloop
  endfacet
  facet normal 0 0 1
    outer loop
      vertex -24.8063 21.3782 10
      vertex -24.5677 22.0337 10
      vertex -24.6985 21.7101 10
    endloop
  endfacet
  facet normal 0 0 1
    outer loop
      vertex -24.8907 21.0396 10
      vertex -24.5677 22.0337 10
      vertex -24.8063 21.3782 10
    endloop
  endfacet
  facet normal 0 0 1
    outer loop
      vertex -24.9878 20.3488 10
      vertex -24.2402 22.6496 10
      vertex -24.5677 22.0337 10
    endloop
  endfacet
  facet normal 0 0 1
    outer loop
      vertex -24.9878 20.3488 10
      vertex -24.8907 21.0396 10
      vertex -24.9513 20.6959 10
    endloop
  endfacet
  facet normal 0 0 1
    outer loop
      vertex -20.5226 24.9726 10
      vertex -23.3456 23.7157 10
      vertex -24.9878 20.3488 10
    endloop
  endfacet
  facet normal 0 0 1
    outer loop
      vertex -20.1745 24.9969 10
      vertex -24.9878 20.3488 10
      vertex -25 20 10
    endloop
  endfacet
  facet normal -0 0 1
    outer loop
      vertex -20.1745 24.9969 10
      vertex -25 20 10
      vertex 20.1745 24.9969 10
    endloop
  endfacet
  facet normal 0 0 1
    outer loop
      vertex 25 -20 10
      vertex -25 -20 10
      vertex 20.1745 -24.9969 10
    endloop
  endfacet
  facet normal 0 0 1
    outer loop
      vertex -25 -20 10
      vertex -20.1745 -24.9969 10
      vertex 20.1745 -24.9969 10
    endloop
  endfacet
  facet normal 0 0 1
    outer loop
      vertex -24.9878 -20.3488 10
      vertex -24.9513 -20.6959 10
      vertex -24.8907 -21.0396 10
    endloop
  endfacet
  facet normal -0 -0 1
    outer loop
      vertex -24.6985 -21.7101 10
      vertex -24.5677 -22.0337 10
      vertex -24.8063 -21.3782 10
    endloop
  endfacet
  facet normal 0 0 1
    outer loop
      vertex -24.5677 -22.0337 10
      vertex -24.8907 -21.0396 10
      vertex -24.8063 -21.3782 10
    endloop
  endfacet
  facet normal 0 0 1
    outer loop
      vertex -24.9878 -20.3488 10
      vertex -24.8907 -21.0396 10
      vertex -24.5677 -22.0337 10
    endloop
  endfacet
  facet normal 0 0 1
    outer loop
      vertex -24.2402 -22.6496 10
      vertex -24.5677 -22.0337 10
      vertex -24.4147 -22.3474 10
    endloop
  endfacet
  facet normal 0 0 1
    outer loop
      vertex -24.9878 -20.3488 10
      vertex -24.5677 -22.0337 10
      vertex -24.2402 -22.6496 10
    endloop
  endfacet
  facet normal 0 0 1
    outer loop
      vertex -23.3456 -23.7157 10
      vertex -24.2402 -22.6496 10
      vertex -24.0451 -22.9389 10
    endloop
  endfacet
  facet normal 0 0 1
    outer loop
      vertex -23.3456 -23.7157 10
      vertex -24.0451 -22.9389 10
      vertex -23.8302 -23.2139 10
    endloop
  endfacet
  facet normal 0 0 1
    outer loop
      vertex -23.3456 -23.7157 10
      vertex -23.8302 -23.2139 10
      vertex -23.5967 -23.4733 10
    endloop
  endfacet
  facet normal 0 0 1
    outer loop
      vertex -24.9878 -20.3488 10
      vertex -24.2402 -22.6496 10
      vertex -23.3456 -23.7157 10
    endloop
  endfacet
  facet normal 0 0 1
    outer loop
      vertex -22.1918 -24.494 10
      vertex -23.3456 -23.7157 10
      vertex -23.0783 -23.94 10
    endloop
  endfacet
  facet normal -0 -0 1
    outer loop
      vertex -22.5 -24.3301 10
      vertex -22.1918 -24.494 10
      vertex -22.796 -24.1452 10
    endloop
  endfacet
  facet normal 0 0 1
    outer loop
      vertex -22.1918 -24.494 10
      vertex -23.0783 -23.94 10
      vertex -22.796 -24.1452 10
    endloop
  endfacet
  facet normal 0 0 1
    outer loop
      vertex -20.5226 -24.9726 10
      vertex -23.3456 -23.7157 10
      vertex -22.1918 -24.494 10
    endloop
  endfacet
  facet normal -0 -0 1
    outer loop
      vertex -21.5451 -24.7553 10
      vertex -21.2096 -24.8515 10
      vertex -21.873 -24.6359 10
    endloop
  endfacet
  facet normal 0 0 1
    outer loop
      vertex -21.2096 -24.8515 10
      vertex -22.1918 -24.494 10
      vertex -21.873 -24.6359 10
    endloop
  endfacet
  facet normal -0 -0 1
    outer loop
      vertex -20.8682 -24.924 10
      vertex -20.5226 -24.9726 10
      vertex -21.2096 -24.8515 10
    endloop
  endfacet
  facet normal 0 0 1
    outer loop
      vertex -20.5226 -24.9726 10
      vertex -22.1918 -24.494 10
      vertex -21.2096 -24.8515 10
    endloop
  endfacet
  facet normal 0 0 1
    outer loop
      vertex -24.9878 -20.3488 10
      vertex -23.3456 -23.7157 10
      vertex -20.5226 -24.9726 10
    endloop
  endfacet
  facet normal 0 0 1
    outer loop
      vertex -24.9878 -20.3488 10
      vertex -20.5226 -24.9726 10
      vertex -20.1745 -24.9969 10
    endloop
  endfacet
  facet normal -0 -0 1
    outer loop
      vertex -24.9878 -20.3488 10
      vertex -20.1745 -24.9969 10
      vertex -25 -20 10
    endloop
  endfacet
  facet normal 0 0 1
    outer loop
      vertex -25 20 10
      vertex -25 -20 10
      vertex 25 -20 10
    endloop
  endfacet
  facet normal 0 0 1
    outer loop
      vertex 20.1745 -24.9969 10
      vertex 20.5226 -24.9726 10
      vertex 24.9878 -20.3488 10
    endloop
  endfacet
  facet normal 0 0 1
    outer loop
      vertex 20.5226 -24.9726 10
      vertex 20.8682 -24.924 10
      vertex 21.2096 -24.8515 10
    endloop
  endfacet
  facet normal 0 0 1
    outer loop
      vertex 21.873 -24.6359 10
      vertex 21.2096 -24.8515 10
      vertex 21.5451 -24.7553 10
    endloop
  endfacet
  facet normal 0 0 1
    outer loop
      vertex 22.1918 -24.494 10
      vertex 21.2096 -24.8515 10
      vertex 21.873 -24.6359 10
    endloop
  endfacet
  facet normal 0 0 1
    outer loop
      vertex 20.5226 -24.9726 10
      vertex 21.2096 -24.8515 10
      vertex 22.1918 -24.494 10
    endloop
  endfacet
  facet normal 0 0 1
    outer loop
      vertex 23.0783 -23.94 10
      vertex 22.1918 -24.494 10
      vertex 22.796 -24.1452 10
    endloop
  endfacet
  facet normal 0 0 1
    outer loop
      vertex 22.1918 -24.494 10
      vertex 22.5 -24.3301 10
      vertex 22.796 -24.1452 10
    endloop
  endfacet
  facet normal 0 0 1
    outer loop
      vertex 23.3456 -23.7157 10
      vertex 22.1918 -24.494 10
      vertex 23.0783 -23.94 10
    endloop
  endfacet
  facet normal 0 0 1
    outer loop
      vertex 20.5226 -24.9726 10
      vertex 22.1918 -24.494 10
      vertex 23.3456 -23.7157 10
    endloop
  endfacet
  facet normal 0 0 1
    outer loop
      vertex 23.8302 -23.2139 10
      vertex 23.3456 -23.7157 10
      vertex 23.5967 -23.4733 10
    endloop
  endfacet
  facet normal 0 0 1
    outer loop
      vertex 24.0451 -22.9389 10
      vertex 23.3456 -23.7157 10
      vertex 23.8302 -23.2139 10
    endloop
  endfacet
  facet normal 0 0 1
    outer loop
      vertex 24.2402 -22.6496 10
      vertex 23.3456 -23.7157 10
      vertex 24.0451 -22.9389 10
    endloop
  endfacet
  facet normal 0 0 1
    outer loop
      vertex 24.9878 -20.3488 10
      vertex 23.3456 -23.7157 10
      vertex 24.2402 -22.6496 10
    endloop
  endfacet
  facet normal 0 0 1
    outer loop
      vertex 24.5677 -22.0337 10
      vertex 24.2402 -22.6496 10
      vertex 24.4147 -22.3474 10
    endloop
  endfacet
  facet normal 0 -0 1
    outer loop
      vertex 24.8907 -21.0396 10
      vertex 24.9878 -20.3488 10
      vertex 24.5677 -22.0337 10
    endloop
  endfacet
  facet normal 0 0 1
    outer loop
      vertex 24.8063 -21.3782 10
      vertex 24.5677 -22.0337 10
      vertex 24.6985 -21.7101 10
    endloop
  endfacet
  facet normal 0 0 1
    outer loop
      vertex 24.8907 -21.0396 10
      vertex 24.5677 -22.0337 10
      vertex 24.8063 -21.3782 10
    endloop
  endfacet
  facet normal 0 0 1
    outer loop
      vertex 24.9878 -20.3488 10
      vertex 24.2402 -22.6496 10
      vertex 24.5677 -22.0337 10
    endloop
  endfacet
  facet normal 0 0 1
    outer loop
      vertex 24.9878 -20.3488 10
      vertex 24.8907 -21.0396 10
      vertex 24.9513 -20.6959 10
    endloop
  endfacet
  facet normal 0 0 1
    outer loop
      vertex 20.5226 -24.9726 10
      vertex 23.3456 -23.7157 10
      vertex 24.9878 -20.3488 10
    endloop
  endfacet
  facet normal 0 0 1
    outer loop
      vertex 20.1745 -24.9969 10
      vertex 24.9878 -20.3488 10
      vertex 25 -20 10
    endloop
  endfacet
  facet normal -0 0 1
    outer loop
      vertex -25 20 10
      vertex 25 -20 10
      vertex 25 20 10
    endloop
  endfacet
  facet normal 0 0 1
    outer loop
      vertex -25 20 10
      vertex 25 20 10
      vertex 20.1745 24.9969 10
    endloop
  endfacet
  facet normal 0 0 1
    outer loop
      vertex 24.5677 22.0337 10
      vertex 24.9878 20.3488 10
      vertex 24.8907 21.0396 10
    endloop
  endfacet
  facet normal 0 0 1
    outer loop
      vertex 24.9878 20.3488 10
      vertex 24.9513 20.6959 10
      vertex 24.8907 21.0396 10
    endloop
  endfacet
  facet normal 0.970311 0.241861 0
    outer loop
      vertex 24.8063 21.3782 0
      vertex 24.8907 21.0396 10
      vertex 24.8907 21.0396 0
    endloop
  endfacet
  facet normal 0.970311 0.241861 -0
    outer loop
      vertex 24.8063 21.3782 0
      vertex 24.8063 21.3782 10
      vertex 24.8907 21.0396 10
    endloop
  endfacet
  facet normal 0.951091 0.308911 0
    outer loop
      vertex 24.6985 21.7101 0
      vertex 24.8063 21.3782 10
      vertex 24.8063 21.3782 0
    endloop
  endfacet
  facet normal 0.951091 0.308911 -0
    outer loop
      vertex 24.6985 21.7101 0
      vertex 24.6985 21.7101 10
      vertex 24.8063 21.3782 10
    endloop
  endfacet
  facet normal 0.927127 0.374747 0
    outer loop
      vertex 24.5677 22.0337 0
      vertex 24.6985 21.7101 10
      vertex 24.6985 21.7101 0
    endloop
  endfacet
  facet normal 0.927127 0.374747 -0
    outer loop
      vertex 24.5677 22.0337 0
      vertex 24.5677 22.0337 10
      vertex 24.6985 21.7101 10
    endloop
  endfacet
  facet normal 0.898796 0.438367 0
    outer loop
      vertex 24.4147 22.3474 0
      vertex 24.5677 22.0337 10
      vertex 24.5677 22.0337 0
    endloop
  endfacet
  facet normal 0.898796 0.438367 -0
    outer loop
      vertex 24.4147 22.3474 0
      vertex 24.4147 22.3474 10
      vertex 24.5677 22.0337 10
    endloop
  endfacet
  facet normal 0.865995 0.500053 0
    outer loop
      vertex 24.2402 22.6496 0
      vertex 24.4147 22.3474 10
      vertex 24.4147 22.3474 0
    endloop
  endfacet
  facet normal 0.865995 0.500053 -0
    outer loop
      vertex 24.2402 22.6496 0
      vertex 24.2402 22.6496 10
      vertex 24.4147 22.3474 10
    endloop
  endfacet
  facet normal 0.829084 0.559123 0
    outer loop
      vertex 24.0451 22.9389 0
      vertex 24.2402 22.6496 10
      vertex 24.2402 22.6496 0
    endloop
  endfacet
  facet normal 0.829084 0.559123 -0
    outer loop
      vertex 24.0451 22.9389 0
      vertex 24.0451 22.9389 10
      vertex 24.2402 22.6496 10
    endloop
  endfacet
  facet normal 0.787946 0.615744 0
    outer loop
      vertex 23.8302 23.2139 0
      vertex 24.0451 22.9389 10
      vertex 24.0451 22.9389 0
    endloop
  endfacet
  facet normal 0.787946 0.615744 -0
    outer loop
      vertex 23.8302 23.2139 0
      vertex 23.8302 23.2139 10
      vertex 24.0451 22.9389 10
    endloop
  endfacet
  facet normal 0.743237 0.669028 0
    outer loop
      vertex 23.5967 23.4733 0
      vertex 23.8302 23.2139 10
      vertex 23.8302 23.2139 0
    endloop
  endfacet
  facet normal 0.743237 0.669028 -0
    outer loop
      vertex 23.5967 23.4733 0
      vertex 23.5967 23.4733 10
      vertex 23.8302 23.2139 10
    endloop
  endfacet
  facet normal 0.694533 0.719461 0
    outer loop
      vertex 23.3456 23.7157 0
      vertex 23.5967 23.4733 10
      vertex 23.5967 23.4733 0
    endloop
  endfacet
  facet normal 0.694533 0.719461 -0
    outer loop
      vertex 23.3456 23.7157 0
      vertex 23.3456 23.7157 10
      vertex 23.5967 23.4733 10
    endloop
  endfacet
  facet normal 0.642802 0.766032 0
    outer loop
      vertex 23.0783 23.94 0
      vertex 23.3456 23.7157 10
      vertex 23.3456 23.7157 0
    endloop
  endfacet
  facet normal 0.642802 0.766032 -0
    outer loop
      vertex 23.0783 23.94 0
      vertex 23.0783 23.94 10
      vertex 23.3456 23.7157 10
    endloop
  endfacet
  facet normal 0.587967 0.808885 0
    outer loop
      vertex 22.796 24.1452 0
      vertex 23.0783 23.94 10
      vertex 23.0783 23.94 0
    endloop
  endfacet
  facet normal 0.587967 0.808885 -0
    outer loop
      vertex 22.796 24.1452 0
      vertex 22.796 24.1452 10
      vertex 23.0783 23.94 10
    endloop
  endfacet
  facet normal 0.529793 0.848127 0
    outer loop
      vertex 22.5 24.3301 0
      vertex 22.796 24.1452 10
      vertex 22.796 24.1452 0
    endloop
  endfacet
  facet normal 0.529793 0.848127 -0
    outer loop
      vertex 22.5 24.3301 0
      vertex 22.5 24.3301 10
      vertex 22.796 24.1452 10
    endloop
  endfacet
  facet normal 0.469532 0.882915 0
    outer loop
      vertex 22.1918 24.494 0
      vertex 22.5 24.3301 10
      vertex 22.5 24.3301 0
    endloop
  endfacet
  facet normal 0.469532 0.882915 -0
    outer loop
      vertex 22.1918 24.494 0
      vertex 22.1918 24.494 10
      vertex 22.5 24.3301 10
    endloop
  endfacet
  facet normal 0.406644 0.913587 0
    outer loop
      vertex 21.873 24.6359 0
      vertex 22.1918 24.494 10
      vertex 22.1918 24.494 0
    endloop
  endfacet
  facet normal 0.406644 0.913587 -0
    outer loop
      vertex 21.873 24.6359 0
      vertex 21.873 24.6359 10
      vertex 22.1918 24.494 10
    endloop
  endfacet
  facet normal 0.342157 0.939643 0
    outer loop
      vertex 21.5451 24.7553 0
      vertex 21.873 24.6359 10
      vertex 21.873 24.6359 0
    endloop
  endfacet
  facet normal 0.342157 0.939643 -0
    outer loop
      vertex 21.5451 24.7553 0
      vertex 21.5451 24.7553 10
      vertex 21.873 24.6359 10
    endloop
  endfacet
  facet normal 0.275629 0.961264 0
    outer loop
      vertex 21.2096 24.8515 0
      vertex 21.5451 24.7553 10
      vertex 21.5451 24.7553 0
    endloop
  endfacet
  facet normal 0.275629 0.961264 -0
    outer loop
      vertex 21.2096 24.8515 0
      vertex 21.2096 24.8515 10
      vertex 21.5451 24.7553 10
    endloop
  endfacet
  facet normal 0.207729 0.978187 0
    outer loop
      vertex 20.8682 24.924 0
      vertex 21.2096 24.8515 10
      vertex 21.2096 24.8515 0
    endloop
  endfacet
  facet normal 0.207729 0.978187 -0
    outer loop
      vertex 20.8682 24.924 0
      vertex 20.8682 24.924 10
      vertex 21.2096 24.8515 10
    endloop
  endfacet
  facet normal 0.139255 0.990257 0
    outer loop
      vertex 20.5226 24.9726 0
      vertex 20.8682 24.924 10
      vertex 20.8682 24.924 0
    endloop
  endfacet
  facet normal 0.139255 0.990257 -0
    outer loop
      vertex 20.5226 24.9726 0
      vertex 20.5226 24.9726 10
      vertex 20.8682 24.924 10
    endloop
  endfacet
  facet normal 0.0696381 0.997572 0
    outer loop
      vertex 20.1745 24.9969 0
      vertex 20.5226 24.9726 10
      vertex 20.5226 24.9726 0
    endloop
  endfacet
  facet normal 0.0696381 0.997572 -0
    outer loop
      vertex 20.1745 24.9969 0
      vertex 20.1745 24.9969 10
      vertex 20.5226 24.9726 10
    endloop
  endfacet
  facet normal 0 1 0
    outer loop
      vertex -20.1745 24.9969 0
      vertex 20.1745 24.9969 10
      vertex 20.1745 24.9969 0
    endloop
  endfacet
  facet normal 0 1 0
    outer loop
      vertex -20.1745 24.9969 0
      vertex -20.1745 24.9969 10
      vertex 20.1745 24.9969 10
    endloop
  endfacet
  facet normal -0.0696381 0.997572 0
    outer loop
      vertex -20.5226 24.9726 0
      vertex -20.1745 24.9969 10
      vertex -20.1745 24.9969 0
    endloop
  endfacet
  facet normal -0.0696381 0.997572 0
    outer loop
      vertex -20.5226 24.9726 0
      vertex -20.5226 24.9726 10
      vertex -20.1745 24.9969 10
    endloop
  endfacet
  facet normal -0.139255 0.990257 0
    outer loop
      vertex -20.8682 24.924 0
      vertex -20.5226 24.9726 10
      vertex -20.5226 24.9726 0
    endloop
  endfacet
  facet normal -0.139255 0.990257 0
    outer loop
      vertex -20.8682 24.924 0
      vertex -20.8682 24.924 10
      vertex -20.5226 24.9726 10
    endloop
  endfacet
  facet normal -0.207729 0.978187 0
    outer loop
      vertex -21.2096 24.8515 0
      vertex -20.8682 24.924 10
      vertex -20.8682 24.924 0
    endloop
  endfacet
  facet normal -0.207729 0.978187 0
    outer loop
      vertex -21.2096 24.8515 0
      vertex -21.2096 24.8515 10
      vertex -20.8682 24.924 10
    endloop
  endfacet
  facet normal -0.275629 0.961264 0
    outer loop
      vertex -21.5451 24.7553 0
      vertex -21.2096 24.8515 10
      vertex -21.2096 24.8515 0
    endloop
  endfacet
  facet normal -0.275629 0.961264 0
    outer loop
      vertex -21.5451 24.7553 0
      vertex -21.5451 24.7553 10
      vertex -21.2096 24.8515 10
    endloop
  endfacet
  facet normal -0.342157 0.939643 0
    outer loop
      vertex -21.873 24.6359 0
      vertex -21.5451 24.7553 10
      vertex -21.5451 24.7553 0
    endloop
  endfacet
  facet normal -0.342157 0.939643 0
    outer loop
      vertex -21.873 24.6359 0
      vertex -21.873 24.6359 10
      vertex -21.5451 24.7553 10
    endloop
  endfacet
  facet normal -0.406644 0.913587 0
    outer loop
      vertex -22.1918 24.494 0
      vertex -21.873 24.6359 10
      vertex -21.873 24.6359 0
    endloop
  endfacet
  facet normal -0.406644 0.913587 0
    outer loop
      vertex -22.1918 24.494 0
      vertex -22.1918 24.494 10
      vertex -21.873 24.6359 10
    endloop
  endfacet
  facet normal -0.469532 0.882915 0
    outer loop
      vertex -22.5 24.3301 0
      vertex -22.1918 24.494 10
      vertex -22.1918 24.494 0
    endloop
  endfacet
  facet normal -0.469532 0.882915 0
    outer loop
      vertex -22.5 24.3301 0
      vertex -22.5 24.3301 10
      vertex -22.1918 24.494 10
    endloop
  endfacet
  facet normal -0.529793 0.848127 0
    outer loop
      vertex -22.796 24.1452 0
      vertex -22.5 24.3301 10
      vertex -22.5 24.3301 0
    endloop
  endfacet
  facet normal -0.529793 0.848127 0
    outer loop
      vertex -22.796 24.1452 0
      vertex -22.796 24.1452 10
      vertex -22.5 24.3301 10
    endloop
  endfacet
  facet normal -0.587967 0.808885 0
    outer loop
      vertex -23.0783 23.94 0
      vertex -22.796 24.1452 10
      vertex -22.796 24.1452 0
    endloop
  endfacet
  facet normal -0.587967 0.808885 0
    outer loop
      vertex -23.0783 23.94 0
      vertex -23.0783 23.94 10
      vertex -22.796 24.1452 10
    endloop
  endfacet
  facet normal -0.642802 0.766032 0
    outer loop
      vertex -23.3456 23.7157 0
      vertex -23.0783 23.94 10
      vertex -23.0783 23.94 0
    endloop
  endfacet
  facet normal -0.642802 0.766032 0
    outer loop
      vertex -23.3456 23.7157 0
      vertex -23.3456 23.7157 10
      vertex -23.0783 23.94 10
    endloop
  endfacet
  facet normal -0.694533 0.719461 0
    outer loop
      vertex -23.5967 23.4733 0
      vertex -23.3456 23.7157 10
      vertex -23.3456 23.7157 0
    endloop
  endfacet
  facet normal -0.694533 0.719461 0
    outer loop
      vertex -23.5967 23.4733 0
      vertex -23.5967 23.4733 10
      vertex -23.3456 23.7157 10
    endloop
  endfacet
  facet normal -0.743237 0.669028 0
    outer loop
      vertex -23.8302 23.2139 0
      vertex -23.5967 23.4733 10
      vertex -23.5967 23.4733 0
    endloop
  endfacet
  facet normal -0.743237 0.669028 0
    outer loop
      vertex -23.8302 23.2139 0
      vertex -23.8302 23.2139 10
      vertex -23.5967 23.4733 10
    endloop
  endfacet
  facet normal -0.787946 0.615744 0
    outer loop
      vertex -24.0451 22.9389 0
      vertex -23.8302 23.2139 10
      vertex -23.8302 23.2139 0
    endloop
  endfacet
  facet normal -0.787946 0.615744 0
    outer loop
      vertex -24.0451 22.9389 0
      vertex -24.0451 22.9389 10
      vertex -23.8302 23.2139 10
    endloop
  endfacet
  facet normal -0.829084 0.559123 0
    outer loop
      vertex -24.2402 22.6496 0
      vertex -24.0451 22.9389 10
      vertex -24.0451 22.9389 0
    endloop
  endfacet
  facet normal -0.829084 0.559123 0
    outer loop
      vertex -24.2402 22.6496 0
      vertex -24.2402 22.6496 10
      vertex -24.0451 22.9389 10
    endloop
  endfacet
  facet normal -0.865995 0.500053 0
    outer loop
      vertex -24.4147 22.3474 0
      vertex -24.2402 22.6496 10
      vertex -24.2402 22.6496 0
    endloop
  endfacet
  facet normal -0.865995 0.500053 0
    outer loop
      vertex -24.4147 22.3474 0
      vertex -24.4147 22.3474 10
      vertex -24.2402 22.6496 10
    endloop
  endfacet
  facet normal -0.898796 0.438367 0
    outer loop
      vertex -24.5677 22.0337 0
      vertex -24.4147 22.3474 10
      vertex -24.4147 22.3474 0
    endloop
  endfacet
  facet normal -0.898796 0.438367 0
    outer loop
      vertex -24.5677 22.0337 0
      vertex -24.5677 22.0337 10
      vertex -24.4147 22.3474 10
    endloop
  endfacet
  facet normal -0.927127 0.374747 0
    outer loop
      vertex -24.6985 21.7101 0
      vertex -24.5677 22.0337 10
      vertex -24.5677 22.0337 0
    endloop
  endfacet
  facet normal -0.927127 0.374747 0
    outer loop
      vertex -24.6985 21.7101 0
      vertex -24.6985 21.7101 10
      vertex -24.5677 22.0337 10
    endloop
  endfacet
  facet normal -0.951091 0.308911 0
    outer loop
      vertex -24.8063 21.3782 0
      vertex -24.6985 21.7101 10
      vertex -24.6985 21.7101 0
    endloop
  endfacet
  facet normal -0.951091 0.308911 0
    outer loop
      vertex -24.8063 21.3782 0
      vertex -24.8063 21.3782 10
      vertex -24.6985 21.7101 10
    endloop
  endfacet
  facet normal -0.970311 0.241861 0
    outer loop
      vertex -24.8907 21.0396 0
      vertex -24.8063 21.3782 10
      vertex -24.8063 21.3782 0
    endloop
  endfacet
  facet normal -0.970311 0.241861 0
    outer loop
      vertex -24.8907 21.0396 0
      vertex -24.8907 21.0396 10
      vertex -24.8063 21.3782 10
    endloop
  endfacet
  facet normal -0.98481 0.173638 0
    outer loop
      vertex -24.9513 20.6959 0
      vertex -24.8907 21.0396 10
      vertex -24.8907 21.0396 0
    endloop
  endfacet
  facet normal -0.98481 0.173638 0
    outer loop
      vertex -24.9513 20.6959 0
      vertex -24.9513 20.6959 10
      vertex -24.8907 21.0396 10
    endloop
  endfacet
  facet normal -0.994516 0.10458 0
    outer loop
      vertex -24.9878 20.3488 0
      vertex -24.9513 20.6959 10
      vertex -24.9513 20.6959 0
    endloop
  endfacet
  facet normal -0.994516 0.10458 0
    outer loop
      vertex -24.9878 20.3488 0
      vertex -24.9878 20.3488 10
      vertex -24.9513 20.6959 10
    endloop
  endfacet
  facet normal -0.999389 0.0349557 0
    outer loop
      vertex -25 20 0
      vertex -24.9878 20.3488 10
      vertex -24.9878 20.3488 0
    endloop
  endfacet
  facet normal -0.999389 0.0349557 0
    outer loop
      vertex -25 20 0
      vertex -25 20 10
      vertex -24.9878 20.3488 10
    endloop
  endfacet
  facet normal -1 0 0
    outer loop
      vertex -25 -20 0
      vertex -25 20 10
      vertex -25 20 0
    endloop
  endfacet
  facet normal -1 0 0
    outer loop
      vertex -25 -20 0
      vertex -25 -20 10
      vertex -25 20 10
    endloop
  endfacet
  facet normal -0.999389 -0.0349557 0
    outer loop
      vertex -24.9878 -20.3488 0
      vertex -25 -20 10
      vertex -25 -20 0
    endloop
  endfacet
  facet normal -0.999389 -0.0349557 0
    outer loop
      vertex -24.9878 -20.3488 0
      vertex -24.9878 -20.3488 10
      vertex -25 -20 10
    endloop
  endfacet
  facet normal -0.994516 -0.10458 0
    outer loop
      vertex -24.9513 -20.6959 0
      vertex -24.9878 -20.3488 10
      vertex -24.9878 -20.3488 0
    endloop
  endfacet
  facet normal -0.994516 -0.10458 0
    outer loop
      vertex -24.9513 -20.6959 0
      vertex -24.9513 -20.6959 10
      vertex -24.9878 -20.3488 10
    endloop
  endfacet
  facet normal -0.98481 -0.173638 0
    outer loop
      vertex -24.8907 -21.0396 0
      vertex -24.9513 -20.6959 10
      vertex -24.9513 -20.6959 0
    endloop
  endfacet
  facet normal -0.98481 -0.173638 0
    outer loop
      vertex -24.8907 -21.0396 0
      vertex -24.8907 -21.0396 10
      vertex -24.9513 -20.6959 10
    endloop
  endfacet
  facet normal -0.970311 -0.241861 0
    outer loop
      vertex -24.8063 -21.3782 0
      vertex -24.8907 -21.0396 10
      vertex -24.8907 -21.0396 0
    endloop
  endfacet
  facet normal -0.970311 -0.241861 0
    outer loop
      vertex -24.8063 -21.3782 0
      vertex -24.8063 -21.3782 10
      vertex -24.8907 -21.0396 10
    endloop
  endfacet
  facet normal -0.951091 -0.308911 0
    outer loop
      vertex -24.6985 -21.7101 0
      vertex -24.8063 -21.3782 10
      vertex -24.8063 -21.3782 0
    endloop
  endfacet
  facet normal -0.951091 -0.308911 0
    outer loop
      vertex -24.6985 -21.7101 0
      vertex -24.6985 -21.7101 10
      vertex -24.8063 -21.3782 10
    endloop
  endfacet
  facet normal -0.927127 -0.374747 0
    outer loop
      vertex -24.5677 -22.0337 0
      vertex -24.6985 -21.7101 10
      vertex -24.6985 -21.7101 0
    endloop
  endfacet
  facet normal -0.927127 -0.374747 0
    outer loop
      vertex -24.5677 -22.0337 0
      vertex -24.5677 -22.0337 10
      vertex -24.6985 -21.7101 10
    endloop
  endfacet
  facet normal -0.898796 -0.438367 0
    outer loop
      vertex -24.4147 -22.3474 0
      vertex -24.5677 -22.0337 10
      vertex -24.5677 -22.0337 0
    endloop
  endfacet
  facet normal -0.898796 -0.438367 0
    outer loop
      vertex -24.4147 -22.3474 0
      vertex -24.4147 -22.3474 10
      vertex -24.5677 -22.0337 10
    endloop
  endfacet
  facet normal -0.865995 -0.500053 0
    outer loop
      vertex -24.2402 -22.6496 0
      vertex -24.4147 -22.3474 10
      vertex -24.4147 -22.3474 0
    endloop
  endfacet
  facet normal -0.865995 -0.500053 0
    outer loop
      vertex -24.2402 -22.6496 0
      vertex -24.2402 -22.6496 10
      vertex -24.4147 -22.3474 10
    endloop
  endfacet
  facet normal -0.829084 -0.559123 0
    outer loop
      vertex -24.0451 -22.9389 0
      vertex -24.2402 -22.6496 10
      vertex -24.2402 -22.6496 0
    endloop
  endfacet
  facet normal -0.829084 -0.559123 0
    outer loop
      vertex -24.0451 -22.9389 0
      vertex -24.0451 -22.9389 10
      vertex -24.2402 -22.6496 10
    endloop
  endfacet
  facet normal -0.787946 -0.615744 0
    outer loop
      vertex -23.8302 -23.2139 0
      vertex -24.0451 -22.9389 10
      vertex -24.0451 -22.9389 0
    endloop
  endfacet
  facet normal -0.787946 -0.615744 0
    outer loop
      vertex -23.8302 -23.2139 0
      vertex -23.8302 -23.2139 10
      vertex -24.0451 -22.9389 10
    endloop
  endfacet
  facet normal -0.743237 -0.669028 0
    outer loop
      vertex -23.5967 -23.4733 0
      vertex -23.8302 -23.2139 10
      vertex -23.8302 -23.2139 0
    endloop
  endfacet
  facet normal -0.743237 -0.669028 0
    outer loop
      vertex -23.5967 -23.4733 0
      vertex -23.5967 -23.4733 10
      vertex -23.8302 -23.2139 10
    endloop
  endfacet
  facet normal -0.694533 -0.719461 0
    outer loop
      vertex -23.3456 -23.7157 0
      vertex -23.5967 -23.4733 10
      vertex -23.5967 -23.4733 0
    endloop
  endfacet
  facet normal -0.694533 -0.719461 0
    outer loop
      vertex -23.3456 -23.7157 0
      vertex -23.3456 -23.7157 10
      vertex -23.5967 -23.4733 10
    endloop
  endfacet
  facet normal -0.642802 -0.766032 0
    outer loop
      vertex -23.0783 -23.94 0
      vertex -23.3456 -23.7157 10
      vertex -23.3456 -23.7157 0
    endloop
  endfacet
  facet normal -0.642802 -0.766032 0
    outer loop
      vertex -23.0783 -23.94 0
      vertex -23.0783 -23.94 10
      vertex -23.3456 -23.7157 10
    endloop
  endfacet
  facet normal -0.587967 -0.808885 0
    outer loop
      vertex -22.796 -24.1452 0
      vertex -23.0783 -23.94 10
      vertex -23.0783 -23.94 0
    endloop
  endfacet
  facet normal -0.587967 -0.808885 0
    outer loop
      vertex -22.796 -24.1452 0
      vertex -22.796 -24.1452 10
      vertex -23.0783 -23.94 10
    endloop
  endfacet
  facet normal -0.529793 -0.848127 0
    outer loop
      vertex -22.5 -24.3301 0
      vertex -22.796 -24.1452 10
      vertex -22.796 -24.1452 0
    endloop
  endfacet
  facet normal -0.529793 -0.848127 0
    outer loop
      vertex -22.5 -24.3301 0
      vertex -22.5 -24.3301 10
      vertex -22.796 -24.1452 10
    endloop
  endfacet
  facet normal -0.469532 -0.882915 0
    outer loop
      vertex -22.1918 -24.494 0
      vertex -22.5 -24.3301 10
      vertex -22.5 -24.3301 0
    endloop
  endfacet
  facet normal -0.469532 -0.882915 0
    outer loop
      vertex -22.1918 -24.494 0
      vertex -22.1918 -24.494 10
      vertex -22.5 -24.3301 10
    endloop
  endfacet
  facet normal -0.406644 -0.913587 0
    outer loop
      vertex -21.873 -24.6359 0
      vertex -22.1918 -24.494 10
      vertex -22.1918 -24.494 0
    endloop
  endfacet
  facet normal -0.406644 -0.913587 0
    outer loop
      vertex -21.873 -24.6359 0
      vertex -21.873 -24.6359 10
      vertex -22.1918 -24.494 10
    endloop
  endfacet
  facet normal -0.342157 -0.939643 0
    outer loop
      vertex -21.5451 -24.7553 0
      vertex -21.873 -24.6359 10
      vertex -21.873 -24.6359 0
    endloop
  endfacet
  facet normal -0.342157 -0.939643 0
    outer loop
      vertex -21.5451 -24.7553 0
      vertex -21.5451 -24.7553 10
      vertex -21.873 -24.6359 10
    endloop
  endfacet
  facet normal -0.275629 -0.961264 0
    outer loop
      vertex -21.2096 -24.8515 0
      vertex -21.5451 -24.7553 10
      vertex -21.5451 -24.7553 0
    endloop
  endfacet
  facet normal -0.275629 -0.961264 0
    outer loop
      vertex -21.2096 -24.8515 0
      vertex -21.2096 -24.8515 10
      vertex -21.5451 -24.7553 10
    endloop
  endfacet
  facet normal -0.207729 -0.978187 0
    outer loop
      vertex -20.8682 -24.924 0
      vertex -21.2096 -24.8515 10
      vertex -21.2096 -24.8515 0
    endloop
  endfacet
  facet normal -0.207729 -0.978187 0
    outer loop
      vertex -20.8682 -24.924 0
      vertex -20.8682 -24.924 10
      vertex -21.2096 -24.8515 10
    endloop
  endfacet
  facet normal -0.139255 -0.990257 0
    outer loop
      vertex -20.5226 -24.9726 0
      vertex -20.8682 -24.924 10
      vertex -20.8682 -24.924 0
    endloop
  endfacet
  facet normal -0.139255 -0.990257 0
    outer loop
      vertex -20.5226 -24.9726 0
      vertex -20.5226 -24.9726 10
      vertex -20.8682 -24.924 10
    endloop
  endfacet
  facet normal -0.0696381 -0.997572 0
    outer loop
      vertex -20.1745 -24.9969 0
      vertex -20.5226 -24.9726 10
      vertex -20.5226 -24.9726 0
    endloop
  endfacet
  facet normal -0.0696381 -0.997572 0
    outer loop
      vertex -20.1745 -24.9969 0
      vertex -20.1745 -24.9969 10
      vertex -20.5226 -24.9726 10
    endloop
  endfacet
  facet normal 0 -1 0
    outer loop
      vertex 20.1745 -24.9969 0
      vertex -20.1745 -24.9969 10
      vertex -20.1745 -24.9969 0
    endloop
  endfacet
  facet normal 0 -1 0
    outer loop
      vertex 20.1745 -24.9969 0
      vertex 20.1745 -24.9969 10
      vertex -20.1745 -24.9969 10
    endloop
  endfacet
  facet normal 0.0696381 -0.997572 0
    outer loop
      vertex 20.5226 -24.9726 0
      vertex 20.1745 -24.9969 10
      vertex 20.1745 -24.9969 0
    endloop
  endfacet
  facet normal 0.0696381 -0.997572 0
    outer loop
      vertex 20.5226 -24.9726 0
      vertex 20.5226 -24.9726 10
      vertex 20.1745 -24.9969 10
    endloop
  endfacet
  facet normal 0.139255 -0.990257 0
    outer loop
      vertex 20.8682 -24.924 0
      vertex 20.5226 -24.9726 10
      vertex 20.5226 -24.9726 0
    endloop
  endfacet
  facet normal 0.139255 -0.990257 0
    outer loop
      vertex 20.8682 -24.924 0
      vertex 20.8682 -24.924 10
      vertex 20.5226 -24.9726 10
    endloop
  endfacet
  facet normal 0.207729 -0.978187 0
    outer loop
      vertex 21.2096 -24.8515 0
      vertex 20.8682 -24.924 10
      vertex 20.8682 -24.924 0
    endloop
  endfacet
  facet normal 0.207729 -0.978187 0
    outer loop
      vertex 21.2096 -24.8515 0
      vertex 21.2096 -24.8515 10
      vertex 20.8682 -24.924 10
    endloop
  endfacet
  facet normal 0.275629 -0.961264 0
    outer loop
      vertex 21.5451 -24.7553 0
      vertex 21.2096 -24.8515 10
      vertex 21.2096 -24.8515 0
    endloop
  endfacet
  facet normal 0.275629 -0.961264 0
    outer loop
      vertex 21.5451 -24.7553 0
      vertex 21.5451 -24.7553 10
      vertex 21.2096 -24.8515 10
    endloop
  endfacet
  facet normal 0.342157 -0.939643 0
    outer loop
      vertex 21.873 -24.6359 0
      vertex 21.5451 -24.7553 10
      vertex 21.5451 -24.7553 0
    endloop
  endfacet
  facet normal 0.342157 -0.939643 0
    outer loop
      vertex 21.873 -24.6359 0
      vertex 21.873 -24.6359 10
      vertex 21.5451 -24.7553 10
    endloop
  endfacet
  facet normal 0.406644 -0.913587 0
    outer loop
      vertex 22.1918 -24.494 0
      vertex 21.873 -24.6359 10
      vertex 21.873 -24.6359 0
    endloop
  endfacet
  facet normal 0.406644 -0.913587 0
    outer loop
      vertex 22.1918 -24.494 0
      vertex 22.1918 -24.494 10
      vertex 21.873 -24.6359 10
    endloop
  endfacet
  facet normal 0.469532 -0.882915 0
    outer loop
      vertex 22.5 -24.3301 0
      vertex 22.1918 -24.494 10
      vertex 22.1918 -24.494 0
    endloop
  endfacet
  facet normal 0.469532 -0.882915 0
    outer loop
      vertex 22.5 -24.3301 0
      vertex 22.5 -24.3301 10
      vertex 22.1918 -24.494 10
    endloop
  endfacet
  facet normal 0.529793 -0.848127 0
    outer loop
      vertex 22.796 -24.1452 0
      vertex 22.5 -24.3301 10
      vertex 22.5 -24.3301 0
    endloop
  endfacet
  facet normal 0.529793 -0.848127 0
    outer loop
      vertex 22.796 -24.1452 0
      vertex 22.796 -24.1452 10
      vertex 22.5 -24.3301 10
    endloop
  endfacet
  facet normal 0.587967 -0.808885 0
    outer loop
      vertex 23.0783 -23.94 0
      vertex 22.796 -24.1452 10
      vertex 22.796 -24.1452 0
    endloop
  endfacet
  facet normal 0.587967 -0.808885 0
    outer loop
      vertex 23.0783 -23.94 0
      vertex 23.0783 -23.94 10
      vertex 22.796 -24.1452 10
    endloop
  endfacet
  facet normal 0.642802 -0.766032 0
    outer loop
      vertex 23.3456 -23.7157 0
      vertex 23.0783 -23.94 10
      vertex 23.0783 -23.94 0
    endloop
  endfacet
  facet normal 0.642802 -0.766032 0
    outer loop
      vertex 23.3456 -23.7157 0
      vertex 23.3456 -23.7157 10
      vertex 23.0783 -23.94 10
    endloop
  endfacet
  facet normal 0.694533 -0.719461 0
    outer loop
      vertex 23.5967 -23.4733 0
      vertex 23.3456 -23.7157 10
      vertex 23.3456 -23.7157 0
    endloop
  endfacet
  facet normal 0.694533 -0.719461 0
    outer loop
      vertex 23.5967 -23.4733 0
      vertex 23.5967 -23.4733 10
      vertex 23.3456 -23.7157 10
    endloop
  endfacet
  facet normal 0.743237 -0.669028 0
    outer loop
      vertex 23.8302 -23.2139 0
      vertex 23.5967 -23.4733 10
      vertex 23.5967 -23.4733 0
    endloop
  endfacet
  facet normal 0.743237 -0.669028 0
    outer loop
      vertex 23.8302 -23.2139 0
      vertex 23.8302 -23.2139 10
      vertex 23.5967 -23.4733 10
    endloop
  endfacet
  facet normal 0.787946 -0.615744 0
    outer loop
      vertex 24.0451 -22.9389 0
      vertex 23.8302 -23.2139 10
      vertex 23.8302 -23.2139 0
    endloop
  endfacet
  facet normal 0.787946 -0.615744 0
    outer loop
      vertex 24.0451 -22.9389 0
      vertex 24.0451 -22.9389 10
      vertex 23.8302 -23.2139 10
    endloop
  endfacet
  facet normal 0.829084 -0.559123 0
    outer loop
      vertex 24.2402 -22.6496 0
      vertex 24.0451 -22.9389 10
      vertex 24.0451 -22.9389 0
    endloop
  endfacet
  facet normal 0.829084 -0.559123 0
    outer loop
      vertex 24.2402 -22.6496 0
      vertex 24.2402 -22.6496 10
      vertex 24.0451 -22.9389 10
    endloop
  endfacet
  facet normal 0.865995 -0.500053 0
    outer loop
      vertex 24.4147 -22.3474 0
      vertex 24.2402 -22.6496 10
      vertex 24.2402 -22.6496 0
    endloop
  endfacet
  facet normal 0.865995 -0.500053 0
    outer loop
      vertex 24.4147 -22.3474 0
      vertex 24.4147 -22.3474 10
      vertex 24.2402 -22.6496 10
    endloop
  endfacet
  facet normal 0.898796 -0.438367 0
    outer loop
      vertex 24.5677 -22.0337 0
      vertex 24.4147 -22.3474 10
      vertex 24.4147 -22.3474 0
    endloop
  endfacet
  facet normal 0.898796 -0.438367 0
    outer loop
      vertex 24.5677 -22.0337 0
      vertex 24.5677 -22.0337 10
      vertex 24.4147 -22.3474 10
    endloop
  endfacet
  facet normal 0.927127 -0.374747 0
    outer loop
      vertex 24.6985 -21.7101 0
      vertex 24.5677 -22.0337 10
      vertex 24.5677 -22.0337 0
    endloop
  endfacet
  facet normal 0.927127 -0.374747 0
    outer loop
      vertex 24.6985 -21.7101 0
      vertex 24.6985 -21.7101 10
      vertex 24.5677 -22.0337 10
    endloop
  endfacet
  facet normal 0.951091 -0.308911 0
    outer loop
      vertex 24.8063 -21.3782 0
      vertex 24.6985 -21.7101 10
      vertex 24.6985 -21.7101 0
    endloop
  endfacet
  facet normal 0.951091 -0.308911 0
    outer loop
      vertex 24.8063 -21.3782 0
      vertex 24.8063 -21.3782 10
      vertex 24.6985 -21.7101 10
    endloop
  endfacet
  facet normal 0.970311 -0.241861 0
    outer loop
      vertex 24.8907 -21.0396 0
      vertex 24.8063 -21.3782 10
      vertex 24.8063 -21.3782 0
    endloop
  endfacet
  facet normal 0.970311 -0.241861 0
    outer loop
      vertex 24.8907 -21.0396 0
      vertex 24.8907 -21.0396 10
      vertex 24.8063 -21.3782 10
    endloop
  endfacet
  facet normal 0.98481 -0.173638 0
    outer loop
      vertex 24.9513 -20.6959 0
      vertex 24.8907 -21.0396 10
      vertex 24.8907 -21.0396 0
    endloop
  endfacet
  facet normal 0.98481 -0.173638 0
    outer loop
      vertex 24.9513 -20.6959 0
      vertex 24.9513 -20.6959 10
      vertex 24.8907 -21.0396 10
    endloop
  endfacet
  facet normal 0.994516 -0.10458 0
    outer loop
      vertex 24.9878 -20.3488 0
      vertex 24.9513 -20.6959 10
      vertex 24.9513 -20.6959 0
    endloop
  endfacet
  facet normal 0.994516 -0.10458 0
    outer loop
      vertex 24.9878 -20.3488 0
      vertex 24.9878 -20.3488 10
      vertex 24.9513 -20.6959 10
    endloop
  endfacet
  facet normal 0.999389 -0.0349557 0
    outer loop
      vertex 25 -20 0
      vertex 24.9878 -20.3488 10
      vertex 24.9878 -20.3488 0
    endloop
  endfacet
  facet normal 0.999389 -0.0349557 0
    outer loop
      vertex 25 -20 0
      vertex 25 -20 10
      vertex 24.9878 -20.3488 10
    endloop
  endfacet
  facet normal 1 0 0
    outer loop
      vertex 25 20 0
      vertex 25 -20 10
      vertex 25 -20 0
    endloop
  endfacet
  facet normal 1 0 -0
    outer loop
      vertex 25 20 0
      vertex 25 20 10
      vertex 25 -20 10
    endloop
  endfacet
  facet normal 0.999389 0.0349557 0
    outer loop
      vertex 24.9878 20.3488 0
      vertex 25 20 10
      vertex 25 20 0
    endloop
  endfacet
  facet normal 0.999389 0.0349557 -0
    outer loop
      vertex 24.9878 20.3488 0
      vertex 24.9878 20.3488 10
      vertex 25 20 10
    endloop
  endfacet
  facet normal 0.994516 0.10458 0
    outer loop
      vertex 24.9513 20.6959 0
      vertex 24.9878 20.3488 10
      vertex 24.9878 20.3488 0
    endloop
  endfacet
  facet normal 0.994516 0.10458 -0
    outer loop
      vertex 24.9513 20.6959 0
      vertex 24.9513 20.6959 10
      vertex 24.9878 20.3488 10
    endloop
  endfacet
  facet normal 0.98481 0.173638 0
    outer loop
      vertex 24.8907 21.0396 0
      vertex 24.9513 20.6959 10
      vertex 24.9513 20.6959 0
    endloop
  endfacet
  facet normal 0.98481 0.173638 -0
    outer loop
      vertex 24.8907 21.0396 0
      vertex 24.8907 21.0396 10
      vertex 24.9513 20.6959 10
    endloop
  endfacet
endsolid OpenSCAD_Model
